<?xml version="1.0" standalone="no"?>
<!DOCTYPE svg PUBLIC "-//W3C//DTD SVG 20010904//EN"
 "http://www.w3.org/TR/2001/REC-SVG-20010904/DTD/svg10.dtd">
<svg version="1.0" xmlns="http://www.w3.org/2000/svg"
 width="700.000000pt" height="700.000000pt" viewBox="0 0 700.000000 700.000000"
 preserveAspectRatio="xMidYMid meet">
<metadata>
Created by potrace 1.14, written by Peter Selinger 2001-2017
</metadata>
<g transform="translate(0.000000,700.000000) scale(0.100000,-0.100000)"
fill="#000000" stroke="none">
<path d="M6187 5894 c-1 -1 -42 -5 -91 -9 -49 -4 -98 -8 -110 -10 -11 -2 -56
-9 -99 -15 -90 -13 -106 -16 -222 -40 -245 -50 -463 -123 -795 -265 l-135 -58
-60 13 c-80 16 -83 17 -135 29 -25 5 -58 12 -75 15 -28 5 -166 30 -225 40 -56
10 -260 35 -335 42 -44 4 -93 8 -110 10 -39 5 -437 5 -495 0 -25 -2 -83 -7
-130 -11 -47 -3 -98 -8 -115 -10 -16 -2 -52 -7 -80 -10 -27 -3 -68 -8 -90 -11
-42 -5 -305 -51 -340 -59 -11 -2 -61 -14 -112 -26 l-91 -22 -49 32 c-173 117
-553 258 -768 287 -27 3 -52 8 -55 9 -3 2 -37 6 -75 10 -39 4 -83 9 -100 11
-73 9 -411 2 -422 -10 -9 -9 -63 -248 -77 -341 -20 -136 -14 -339 14 -475 40
-198 87 -305 247 -568 84 -136 153 -297 183 -425 23 -95 25 -118 16 -167 -3
-19 -9 -51 -12 -70 -14 -87 -13 -487 2 -580 17 -113 62 -301 75 -314 5 -6 9
-17 9 -26 0 -25 76 -205 131 -309 174 -330 412 -599 715 -810 34 -23 76 -60
94 -82 28 -35 30 -42 18 -59 -148 -205 -205 -322 -249 -509 -38 -161 -22 -283
46 -353 116 -119 323 -121 681 -7 71 23 134 42 141 43 7 1 16 5 19 9 4 4 14 7
21 7 18 0 191 83 258 124 117 71 243 176 297 248 12 17 17 17 63 2 94 -29 199
-43 295 -39 171 6 281 25 349 59 l49 25 45 -23 c211 -113 675 -197 896 -163
101 16 211 93 227 160 19 79 -11 227 -69 342 -34 67 -98 157 -156 218 -30 32
-50 61 -45 65 5 4 36 30 69 57 160 134 331 333 450 526 190 307 297 606 291
814 -3 87 -5 94 -53 185 -50 94 -78 166 -86 226 -4 25 3 43 28 79 33 45 49 95
60 185 25 204 25 559 0 648 l-17 59 64 104 c162 262 242 467 263 669 4 36 9
73 10 82 2 9 6 43 10 75 3 32 8 65 10 73 2 8 7 35 10 60 4 25 15 85 26 135 10
49 19 92 19 97 0 5 -116 7 -123 2z"/>
</g>
</svg>
